<?xml version="1.0" encoding="UTF-8" standalone="no"?>
<!-- Created with Inkscape (http://www.inkscape.org/) -->

<svg
   xmlns:dc="http://purl.org/dc/elements/1.1/"
   xmlns:cc="http://creativecommons.org/ns#"
   xmlns:rdf="http://www.w3.org/1999/02/22-rdf-syntax-ns#"
   xmlns:svg="http://www.w3.org/2000/svg"
   xmlns="http://www.w3.org/2000/svg"
   xmlns:sodipodi="http://sodipodi.sourceforge.net/DTD/sodipodi-0.dtd"
   xmlns:inkscape="http://www.inkscape.org/namespaces/inkscape"
   width="168.30875"
   height="36.270626"
   id="svg2945"
   version="1.1"
   inkscape:version="0.47 r22583"
   sodipodi:docname="New document 3">
  <defs
     id="defs2947">
    <inkscape:perspective
       sodipodi:type="inkscape:persp3d"
       inkscape:vp_x="0 : 526.18109 : 1"
       inkscape:vp_y="0 : 1000 : 0"
       inkscape:vp_z="744.09448 : 526.18109 : 1"
       inkscape:persp3d-origin="372.04724 : 350.78739 : 1"
       id="perspective2953" />
    <inkscape:perspective
       id="perspective2904"
       inkscape:persp3d-origin="0.5 : 0.33333333 : 1"
       inkscape:vp_z="1 : 0.5 : 1"
       inkscape:vp_y="0 : 1000 : 0"
       inkscape:vp_x="0 : 0.5 : 1"
       sodipodi:type="inkscape:persp3d" />
    <clipPath
       clipPathUnits="userSpaceOnUse"
       id="clipPath20">
      <path
         d="m 263.118,328.712 155,0 0,53.8 -155,0 0,-53.8 z"
         id="path22" />
    </clipPath>
    <clipPath
       clipPathUnits="userSpaceOnUse"
       id="clipPath28">
      <path
         d="m 271.118,343.495 134.647,0 0,29.017 -134.647,0 0,-29.017 z"
         id="path30" />
    </clipPath>
  </defs>
  <sodipodi:namedview
     id="base"
     pagecolor="#ffffff"
     bordercolor="#666666"
     borderopacity="1.0"
     inkscape:pageopacity="0.0"
     inkscape:pageshadow="2"
     inkscape:zoom="2.3225806"
     inkscape:cx="86.875"
     inkscape:cy="-2.0759722"
     inkscape:document-units="px"
     inkscape:current-layer="layer1"
     showgrid="false"
     inkscape:window-width="550"
     inkscape:window-height="481"
     inkscape:window-x="110"
     inkscape:window-y="145"
     inkscape:window-maximized="0" />
  <metadata
     id="metadata2950">
    <rdf:RDF>
      <cc:Work
         rdf:about="">
        <dc:format>image/svg+xml</dc:format>
        <dc:type
           rdf:resource="http://purl.org/dc/dcmitype/StillImage" />
        <dc:title></dc:title>
      </cc:Work>
    </rdf:RDF>
  </metadata>
  <g
     inkscape:label="Layer 1"
     inkscape:groupmode="layer"
     id="layer1"
     transform="translate(-127.41071,-236.95209)">
    <g
       transform="matrix(1.25,0,0,-1.25,-211.48679,702.59147)"
       id="g16">
      <g
         id="g18"
         clip-path="url(#clipPath20)">
        <g
           id="g24">
          <g
             id="g26"
             clip-path="url(#clipPath28)">
            <g
               id="g32"
               transform="translate(354.468,347.1136)">
              <path
                 d="m 0,0 -7.297,10.41 0,-5.687 c 1.776,0 1.776,-0.876 1.776,-0.876 l 0,-3.847 -8.828,0 c 0,0 0,3.074 0,3.847 0,0.876 1.801,0.876 1.801,0.876 l 0,11.536 -1.801,0 0,3.724 c 0,0 0.103,0.877 1.801,0.877 1.699,0 5.251,0 5.251,0 L 0,10.102 l 0,6.157 -1.737,0 0,3.724 c 0,0 -0.039,0.877 1.737,0.877 1.776,0 5.251,0 5.251,0 0,0 1.699,0.021 1.737,-0.877 0.039,-0.899 0,-3.724 0,-3.724 l -1.737,0 0,-16.259"
                 style="fill:#ed192d;fill-opacity:1;fill-rule:nonzero;stroke:none"
                 id="path34" />
            </g>
            <g
               id="g36"
               transform="translate(354.468,347.1136)">
              <path
                 d="m 0,0 -7.297,10.41 0,-5.687 c 1.776,0 1.776,-0.876 1.776,-0.876 l 0,-3.847 -8.828,0 c 0,0 0,3.074 0,3.847 0,0.876 1.801,0.876 1.801,0.876 l 0,11.536 -1.801,0 0,3.724 c 0,0 0.103,0.877 1.801,0.877 1.699,0 5.251,0 5.251,0 L 0,10.102 l 0,6.157 -1.737,0 0,3.724 c 0,0 -0.039,0.877 1.737,0.877 1.776,0 5.251,0 5.251,0 0,0 1.699,0.021 1.737,-0.877 0.039,-0.899 0,-3.724 0,-3.724 l -1.737,0 L 5.251,0 0,0 z"
                 style="fill:none;stroke:#ed192d;stroke-width:0.30899999;stroke-linecap:butt;stroke-linejoin:miter;stroke-miterlimit:3.86400008;stroke-opacity:1;stroke-dasharray:none"
                 id="path38" />
            </g>
            <g
               id="g40"
               transform="translate(314.7126,355.3923)">
              <path
                 d="m 0,0 c -0.841,-1.622 -1.945,-3.039 -4.167,-3.039 -3.766,0 -5.375,2.448 -5.375,5.239 0,2.791 1.978,5.203 5.066,5.163 0,0 2.984,-0.02 3.192,-2.182 l 5.043,0 c 0,0 -0.072,5.35 -0.072,6.196 0,0.749 -0.751,0.749 -0.751,0.749 l -4.22,0 0,-0.629 c -0.851,0.851 -2.398,1.009 -3.192,1.009 -5.76,0 -10.418,-4.546 -10.418,-10.306 0,-6.214 4.657,-10.554 10.418,-10.554 3.576,0 7.187,2.246 9.07,5.495"
                 style="fill:#ed192d;fill-opacity:1;fill-rule:nonzero;stroke:none"
                 id="path42" />
            </g>
            <g
               id="g44"
               transform="translate(314.7126,355.3923)">
              <path
                 d="m 0,0 c -0.841,-1.622 -1.945,-3.039 -4.167,-3.039 -3.766,0 -5.375,2.448 -5.375,5.239 0,2.791 1.978,5.203 5.066,5.163 0,0 2.984,-0.02 3.192,-2.182 l 5.043,0 c 0,0 -0.072,5.35 -0.072,6.196 0,0.749 -0.751,0.749 -0.751,0.749 l -4.22,0 0,-0.629 c -0.851,0.851 -2.398,1.009 -3.192,1.009 -5.76,0 -10.418,-4.546 -10.418,-10.306 0,-6.214 4.657,-10.554 10.418,-10.554 3.576,0 7.187,2.246 9.07,5.495 L 0,0 z"
                 style="fill:none;stroke:#ed192d;stroke-width:0.079;stroke-linecap:butt;stroke-linejoin:miter;stroke-miterlimit:3.86400008;stroke-opacity:1;stroke-dasharray:none"
                 id="path46" />
            </g>
            <g
               id="g48"
               transform="translate(319.307,357.5152)">
              <path
                 d="m 0,0 c 0,5.745 4.657,10.401 10.402,10.401 5.744,0 10.401,-4.656 10.401,-10.401 0,-5.745 -4.657,-10.402 -10.401,-10.402 C 4.657,-10.402 0,-5.745 0,0 z m 5.95,0.089 c 0,2.844 1.63,5.15 4.474,5.15 2.845,0 4.229,-2.306 4.229,-5.15 0,-2.845 -1.384,-5.15 -4.229,-5.15 -2.844,0 -4.474,2.305 -4.474,5.15"
                 style="fill:#ed192d;fill-opacity:1;fill-rule:evenodd;stroke:none"
                 id="path50" />
            </g>
            <g
               id="g52"
               transform="translate(319.307,357.5152)">
              <path
                 d="m 0,0 c 0,5.745 4.657,10.401 10.402,10.401 5.744,0 10.401,-4.656 10.401,-10.401 0,-5.745 -4.657,-10.402 -10.401,-10.402 C 4.657,-10.402 0,-5.745 0,0 z m 5.95,0.089 c 0,2.844 1.63,5.15 4.474,5.15 2.845,0 4.229,-2.306 4.229,-5.15 0,-2.845 -1.384,-5.15 -4.229,-5.15 -2.844,0 -4.474,2.305 -4.474,5.15 z"
                 style="fill:none;stroke:#ed192d;stroke-width:0.30899999;stroke-linecap:butt;stroke-linejoin:miter;stroke-miterlimit:3.86400008;stroke-opacity:1;stroke-dasharray:none"
                 id="path54" />
            </g>
            <g
               id="g56"
               transform="translate(385.6661,347.106)">
              <path
                 d="m 0,0 0,3.847 c 0,0.834 1.767,0.876 1.767,0.876 l 0,11.536 -1.767,0 0,3.723 c 0,0.888 1.767,0.821 1.767,0.821 l 8.654,0 c 5.72,-0.011 9.524,-4.664 9.524,-10.401 C 19.945,4.66 16.151,0.005 10.41,0 L 0,0 z m 6.971,5.341 0,10.3 3.396,0 c 2.829,0 4.229,-2.306 4.229,-5.15 0,-2.837 -1.378,-5.138 -4.208,-5.15"
                 style="fill:#ed192d;fill-opacity:1;fill-rule:evenodd;stroke:none"
                 id="path58" />
            </g>
            <g
               id="g60"
               transform="translate(385.6661,347.106)">
              <path
                 d="m 0,0 0,3.847 c 0,0.834 1.767,0.876 1.767,0.876 l 0,11.536 -1.767,0 0,3.723 c 0,0.888 1.767,0.821 1.767,0.821 l 8.654,0 c 5.72,-0.011 9.524,-4.664 9.524,-10.401 C 19.945,4.66 16.151,0.005 10.41,0 L 0,0 z m 6.971,5.341 0,10.3 3.396,0 c 2.829,0 4.229,-2.306 4.229,-5.15 0,-2.837 -1.378,-5.138 -4.208,-5.15 l -3.417,0 z"
                 style="fill:none;stroke:#ed192d;stroke-width:0.30899999;stroke-linecap:butt;stroke-linejoin:miter;stroke-miterlimit:3.86400008;stroke-opacity:1;stroke-dasharray:none"
                 id="path62" />
            </g>
            <g
               id="g64"
               transform="translate(376.8341,351.8293)">
              <path
                 d="m 0,0 c -1.431,0 -1.435,-0.876 -1.435,-0.876 l 0,-3.847 8.777,0 0,3.847 C 7.342,0 5.876,0 5.876,0 l -7.003,16.137 -7.272,0 c -1.772,0 -1.78,-0.878 -1.78,-0.878 l 0,-3.724 1.471,0 L -13.973,0 c -1.443,0 -1.443,-0.876 -1.443,-0.876 l 0,-3.847 8.754,0 0,3.847 c 0,0 -0.019,0.876 -1.467,0.876 -0.012,0 0.517,1.018 0.517,1.018 l 7.141,0 L 0,0 z m -6.353,5.378 4.608,0 -2.311,5.539"
                 style="fill:#ed192d;fill-opacity:1;fill-rule:evenodd;stroke:none"
                 id="path66" />
            </g>
            <g
               id="g68"
               transform="translate(376.8341,351.8293)">
              <path
                 d="m 0,0 c -1.431,0 -1.435,-0.876 -1.435,-0.876 l 0,-3.847 8.777,0 0,3.847 C 7.342,0 5.876,0 5.876,0 l -7.003,16.137 -7.272,0 c -1.772,0 -1.78,-0.878 -1.78,-0.878 l 0,-3.724 1.471,0 L -13.973,0 c -1.443,0 -1.443,-0.876 -1.443,-0.876 l 0,-3.847 8.754,0 0,3.847 c 0,0 -0.019,0.876 -1.467,0.876 -0.012,0 0.517,1.018 0.517,1.018 l 7.141,0 L 0,0 z m -6.353,5.378 4.608,0 -2.311,5.539 -2.297,-5.539 z"
                 style="fill:none;stroke:#ed192d;stroke-width:0.30899999;stroke-linecap:butt;stroke-linejoin:miter;stroke-miterlimit:3.86400008;stroke-opacity:1;stroke-dasharray:none"
                 id="path70" />
            </g>
            <g
               id="g72"
               transform="translate(289.9789,348.3915)">
              <path
                 d="m 0,0 c -0.337,-2.759 -2.688,-4.897 -5.539,-4.897 -2.853,0 -5.206,2.141 -5.54,4.905 -1.561,-0.669 -3.407,-0.62 -4.991,0.295 -2.669,1.54 -3.583,4.952 -2.043,7.621 0.39,0.674 0.898,1.236 1.484,1.675 -2.231,1.669 -2.911,4.781 -1.484,7.253 1.43,2.476 4.469,3.442 7.032,2.339 0.322,2.775 2.68,4.929 5.542,4.929 2.857,0 5.212,-2.146 5.541,-4.914 2.557,1.085 5.581,0.117 7.005,-2.35 C 8.435,14.384 7.755,11.273 5.524,9.604 7.761,7.937 8.445,4.821 7.016,2.345 5.589,-0.125 2.559,-1.092 0,0"
                 style="fill:#f6842a;fill-opacity:1;fill-rule:nonzero;stroke:none"
                 id="path74" />
            </g>
            <g
               id="g76"
               transform="translate(279.976,349.0753)">
              <path
                 d="M 0,0 C 0,0.785 0.137,1.402 0.559,2.165 -0.696,0.07 -3.387,-0.628 -5.501,0.593 -7.636,1.826 -8.368,4.555 -7.135,6.69 c 0.744,1.289 1.824,2.075 3.408,2.256 -0.724,0.075 -1.212,0.251 -1.774,0.575 -2.135,1.233 -2.867,3.963 -1.634,6.098 1.232,2.134 3.962,2.866 6.097,1.633 0.66,-0.381 1.114,-0.791 1.561,-1.51 C 0.124,16.492 0,17.091 0,17.856 c 0,2.466 1.999,4.465 4.464,4.465 2.466,0 4.464,-1.999 4.464,-4.465 0,-0.742 -0.121,-1.325 -0.502,-2.059 0.444,0.694 0.887,1.089 1.529,1.459 2.134,1.233 4.864,0.501 6.097,-1.633 1.232,-2.135 0.501,-4.865 -1.634,-6.097 C 13.813,9.176 13.286,8.995 12.508,8.938 13.291,8.872 13.819,8.675 14.426,8.324 16.561,7.092 17.292,4.362 16.06,2.227 14.827,0.092 12.098,-0.639 9.963,0.593 9.305,0.973 8.853,1.38 8.406,2.096 8.801,1.352 8.928,0.758 8.928,0 8.928,-2.466 6.93,-4.464 4.464,-4.464 1.999,-4.464 0,-2.466 0,0"
                 style="fill:#fff200;fill-opacity:1;fill-rule:nonzero;stroke:none"
                 id="path78" />
            </g>
            <g
               id="g80"
               transform="translate(279.976,349.0753)">
              <path
                 d="M 0,0 C 0,0.785 0.137,1.402 0.559,2.165 -0.696,0.07 -3.387,-0.628 -5.501,0.593 -7.636,1.826 -8.368,4.555 -7.135,6.69 c 0.744,1.289 1.824,2.075 3.408,2.256 -0.724,0.075 -1.212,0.251 -1.774,0.575 -2.135,1.233 -2.867,3.963 -1.634,6.098 1.232,2.134 3.962,2.866 6.097,1.633 0.66,-0.381 1.114,-0.791 1.561,-1.51 C 0.124,16.492 0,17.091 0,17.856 c 0,2.466 1.999,4.465 4.464,4.465 2.466,0 4.464,-1.999 4.464,-4.465 0,-0.742 -0.121,-1.325 -0.502,-2.059 0.444,0.694 0.887,1.089 1.529,1.459 2.134,1.233 4.864,0.501 6.097,-1.633 1.232,-2.135 0.501,-4.865 -1.634,-6.097 C 13.813,9.176 13.286,8.995 12.508,8.938 13.291,8.872 13.819,8.675 14.426,8.324 16.561,7.092 17.292,4.362 16.06,2.227 14.827,0.092 12.098,-0.639 9.963,0.593 9.305,0.973 8.853,1.38 8.406,2.096 8.801,1.352 8.928,0.758 8.928,0 8.928,-2.466 6.93,-4.464 4.464,-4.464 1.999,-4.464 0,-2.466 0,0 z"
                 style="fill:none;stroke:#f6842a;stroke-width:0.15000001;stroke-linecap:butt;stroke-linejoin:miter;stroke-miterlimit:3.86400008;stroke-opacity:1;stroke-dasharray:none"
                 id="path82" />
            </g>
            <g
               id="g84"
               transform="translate(279.976,358.0036)">
              <path
                 d="M 0,0 C 0,2.465 1.999,4.464 4.464,4.464 6.93,4.464 8.928,2.465 8.928,0 8.928,-2.465 6.93,-4.464 4.464,-4.464 1.999,-4.464 0,-2.465 0,0"
                 style="fill:#f6842a;fill-opacity:1;fill-rule:nonzero;stroke:none"
                 id="path86" />
            </g>
          </g>
        </g>
      </g>
    </g>
  </g>
</svg>
