<svg xmlns="http://www.w3.org/2000/svg" xmlns:xlink="http://www.w3.org/1999/xlink" width="134" height="68" xmlns:v="https://vecta.io/nano"><defs><path id="A" d="M0 0h133.166v51.794H0z"/><path id="B" d="M0 0h31.626v7.322H0z"/><path id="C" d="M85.531 60.799h1.565v5.692h3.547v1.423h-5.112v-7.114"/></defs><g fill="none" fill-rule="evenodd"><mask id="D" fill="#fff"><use xlink:href="#A"/></mask><path d="M133.166 1.388v49.031a1.37 1.37 0 0 1-1.37 1.37l-110.199.005C3.065 51.705-1.133 39.633.239 26.069 1.701 11.615 14.738.004 27.687 0l104.106.002c.758 0 1.373.629 1.373 1.386" fill="#006f45" mask="url(#D)"/><path d="M40.629 29.903c-3.074 2.812-14.374 6.608-16.949 1.301-1.119-2.306-.721-4.502 1.183-7.101 2.201-3.004 4.758-3.247 7.08-3.004 1.557.163 4.155.92 5.562.014s3.487-5.651 4.132-7.321c.872-2.253-.777-3.523-2.524-4.16C15.509 1.028-.853 31.497 16.952 43.281c5.536 3.664 15.47 1.877 20.734-.431.372 1.541 2.005 1.619 3.788 1.619l4.576-.001c2.186.041 4.433-.61 5.194-3.133l5.974-20.804.092-.335 5.519-.002c2.063.014 2.531 1.28 2.026 3.075-.517 1.833-2.043 3.902-3.629 4.81-.532.304-1.61.571-2.436.652l-.804.145c-1.199.079-2.299.925-2.637 2.089-.725 1.933-.009 3.572 1.558 4.805l8.892 7.41c.876.764 2.309 1.275 3.448 1.288l6.343-.001 7.379.004c2.542 0 4.289-1.422 4.805-3.146 2.31-7.719 5.85-14.927 10.423-19.58.431-.432 1.434-.523 1.434.333l.016 5.974c0 1.229-.018 1.586-1.595 1.586-2.344.107-6.136.228-5.856 3.691.13 1.613 1.415 2.354 3.285 3.239 1.502.711 3.275 1.665 4.19 2.367l.023 2.224c-.013 1.994 1.851 3.424 3.695 3.335l3.926-.001c2.268.147 4.069-1.181 3.907-3.677l.001-28.727c0-4.06-4.639-3.621-7.377-3.59-1.96.023-7.239.255-8.891.764-8.756 2.696-16.451 18.042-19.777 26.589-.289.744-1.047.575-1.539.178l-3.418-2.825.641-.299c13.77-6.423 12.671-25.235-.772-24.095l-19.547-.043c-2.405-.029-4.297 1.27-4.902 3.676l-5.012 17.458" fill="#0a0b09" mask="url(#D)"/><g fill="#fffffe"><path d="M9.639 32.209C7.596 19.433 20.354 4.166 37.354 9.057c1.813.711 2.322 1.828 2.744 2.986-4.569-1.249-7.946-1.249-11.648-.159-7.977 2.348-12.956 10.286-13.774 13.882-1.904 8.384 2.252 15.915 4.253 16.866-8.635-3.526-9.291-10.423-9.291-10.423"/><path d="M16.326 13.977c-5.12 4.86-7.743 11.899-6.73 18.239l.012.104.023.144.034.183.022.106a10.44 10.44 0 0 0 .411 1.416c.534 1.464 1.382 2.927 2.616 4.293l.196.212c1.455 1.548 3.332 2.858 5.68 3.863l.323.135.034-.078c-1.089-.518-2.597-2.801-3.569-5.621-1.207-3.501-1.522-7.407-.661-11.197 1.146-5.04 7.016-11.87 13.744-13.851 3.752-1.105 7.131-1.069 11.625.16l.051-.056c-.566-1.553-1.172-2.347-2.614-2.949l-.158-.064c-7.954-2.289-15.516-.282-21.039 4.961zm21.013-4.88l.158.064c1.358.569 1.956 1.308 2.497 2.73l.033.09.08.022c-4.508-1.233-7.903-1.269-11.671-.159-6.759 1.99-12.651 8.845-13.803 13.913-.865 3.806-.548 7.728.663 11.244l.081.229c.844 2.354 2.05 4.306 3.061 5.133l.045.036-.176-.077c-2.294-1.027-4.121-2.356-5.531-3.916-1.226-1.357-2.069-2.811-2.599-4.265-.185-.509-.318-.981-.408-1.404l-.021-.104-.033-.181-.022-.143-.012-.103c-1.009-6.314 1.604-13.325 6.704-18.167 5.431-5.156 12.84-7.169 20.652-5.026l.303.085z" fill-rule="nonzero"/><path d="M45.627 12.495c.605-2.406 2.497-3.706 4.903-3.676l19.574-.008c2.686-.031 6.439 1.626 7.732 4.757-.61-.38-6.596-2.237-7.083-2.237l-19.945-.417c-2.115 0-3.381 2.522-3.381 2.522l-4.498 17.932c-1.719 4.096-15.717 7.54-17.121 3.654 3.036.382 7.547-1.125 10.188-2.555 1.779-.675 3.637-1.786 4.617-2.567.116-.093 5.015-17.405 5.015-17.405m11.279 23.276c-1.567-1.233-2.282-2.872-1.558-4.805.338-1.165 1.438-2.01 2.637-2.089 0 0 2.312-.287 3.239-.797 1.601-.882 3.152-2.966 3.629-4.81.647-2.503-.433-4.232-2.651-4.667 2.186-.218 3.493.829 4.029 1.693.987 1.59 1.182 6.679-3.39 9.293-.808.463-4.183 1.567-4.529 1.628-.476.084-.755 1.062-.767 1.273-.059.967 1.553 1.928 1.553 1.928l7.804 6.793 2.252 1.686c-1.244 0-3.446.134-5.489-1.49l-6.761-5.635m41.146-6.133c1.577 0 1.595-.383 1.595-1.611l.028-6.026c-.007-.931-.23-2.786-1.895-2.001 1.314-2.558 4.245-1.174 4.245.138l-.064 9.048c-.05.976-.422 2.439-1.797 2.59l-3.598.206c-1.414.118-1.183 1.613-1.762 2.461-.823-.378-2.047-.976-2.165-2.449-.175-2.179 3.816-2.283 5.414-2.356m11.615-17.668c-.187-2.695-1.991-3.348-3.245-3.434-1.098-.075-9.331-.035-11.953.778-7.673 2.377-15.538 16.486-19.611 27.21-.65 1.712-1.962 1.079-2.892.402l.048.085c.225.181.698 1.086.901 1.248.916.734 2.507 1.813 3.246-.13 4.073-10.723 11.609-24.216 19.283-26.593 2.621-.813 10.512-.914 11.61-.84 1.252.086 2.614 1.274 2.614 1.274"/></g><path d="M123.646 8.799c1.875 0 3.396 1.52 3.396 3.396v28.813c0 1.875-1.52 3.396-3.396 3.396h-6.017c-1.876 0-3.396-1.52-3.396-3.396V12.194c0-1.876 1.519-3.396 3.396-3.396h6.017" fill="#0a0b09"/><path d="M114.233 12.194c0-1.876 1.519-3.396 3.396-3.396h5.737c1.797.075 2.096 1.52 2.096 3.396v27.327c0 1.875-1.509 3.294-3.385 3.294l-5.748-.026c-1.797-.075-2.096-1.52-2.096-3.396V12.194" fill="#fffffe"/><g fill="#0a0b09"><path d="M70.046 8.812h.044l.013-.001-.057.001"/><path d="M69.869 8.811a.54.54 0 0 0 .086.004l.09-.003-.177-.001m-6.2 32.595l-.246-.205.246.205"/><path d="M63.422 41.201l-.059-.052.059.052"/></g><path d="M101.789 37.534c.437.683.175 4.192 1.256 5.39-1.221 0-3.257-.428-3.371-2.246l-.003-1.744-.002-2.745s1.7.615 2.121 1.344" fill="#fffffe"/><path d="M117.587 10.239h6.09a1.78 1.78 0 0 1 1.782 1.781v29.047a1.78 1.78 0 0 1-1.782 1.782h-6.09a1.78 1.78 0 0 1-1.782-1.782V12.02a1.78 1.78 0 0 1 1.782-1.781M39.358 39.835l-.319 1.143c-.524 1.871 1.595 1.92 2.334 1.92l5.451-.011c1.117-.08 2.283-.411 2.807-1.834.081-.221 3.74-12.493 6.201-21.423.158-.572.88-1.02 1.462-1.007 1.486.034 5.526 0 5.526 0s2.533.01 3.335 1.691c.805 1.688.437 6.538-4.148 9.129-1.072.606-3.975 1-4.132 1.03-1.132.212-1.235 1.543-1.248 1.755-.059.967.446 1.606 1.135 2.213.608.537 9.114 7.6 9.249 7.693.595.41 1.519.755 2.245.763l13.713.002c1.927 0 3.004-1.038 3.298-2.025 2.374-7.931 6.033-15.53 10.978-20.402 2.158-2.127 3.961-.702 3.952.197v7.39c-.004.976.16 2.825-1.215 2.976-.053.006-1.449-.031-2.858.037-1.271.062-2.857.262-3.179 1.101-.709 1.843 1.043 2.361 1.68 2.673 1.452.711 3.91 1.965 5.039 2.851.4.314.544.735.544 1.307v2.237c.113 1.346 1.631 1.722 2.153 1.68l4.531.002c.903-.11 1.615-.6 1.744-1.531.044-.328.034-29.456.034-29.456 0-1.609-1.364-2.003-2.616-2.089-1.098-.075-8.989.027-11.61.839-7.673 2.377-15.21 15.87-19.283 26.593-.738 1.944-2.33.864-3.246.13l-5.83-4.748S80.112 30.224 79.08 17.43c-.329-4.074-2.537-7.068-8.975-7.181 0 0-19.162-.02-19.65 0-1.834.075-2.547.905-3.014 1.973-.158.362-5.506 18.857-5.506 18.857-8.135 5.332-15.509 4.134-16.701 3.769-1.779-.544-6.406-5.212-1.639-11.675 3.065-4.155 8.108-4.428 12.091-3.24.788.235 1.316-.407 1.436-.625.741-1.338 2.704-5.193 3.049-6.085.42-1.086-.281-1.637-1.597-2.116-6.537-2.382-11.622-1.227-15.132.207-8.358 3.414-11.407 11.473-11.995 14.146-1.383 6.283.419 12.785 6.258 16.528 6.537 4.191 18.714.299 21.653-2.153" fill="#ed1d24"/><path d="M5.502 60.799h1.444l3.333 4.381v-4.381h1.545v7.114h-1.332L7.047 63.39v4.523H5.502v-7.114m8.073 0h5.366v1.393H15.13v1.443h3.354v1.392H15.13v1.494h3.861v1.392h-5.417v-7.114" fill="#0a0b09"/><g transform="translate(20.473 60.678)"><mask id="E" fill="#fff"><use xlink:href="#B"/></mask><path mask="url(#E)" d="M0 .122h1.565v5.692h3.547v1.423H0V.122M9.025 3.7v-.02c0-2.023 1.524-3.68 3.71-3.68 1.341 0 2.145.447 2.805 1.098l-.996 1.149c-.549-.498-1.108-.803-1.819-.803-1.2 0-2.063.996-2.063 2.216v.02c0 1.219.843 2.236 2.063 2.236.813 0 1.311-.325 1.87-.833l.996 1.006c-.732.783-1.545 1.27-2.917 1.27-2.094 0-3.649-1.616-3.649-3.658m7.573.486V.122h1.565v4.025c0 1.159.579 1.759 1.534 1.759s1.535-.58 1.535-1.708V.122h1.565v4.015c0 2.155-1.21 3.212-3.121 3.212s-3.079-1.067-3.079-3.161M29.99 3.7v-.02c0-1.219-.895-2.236-2.155-2.236s-2.134.996-2.134 2.216v.02c0 1.219.894 2.236 2.154 2.236S29.99 4.919 29.99 3.7zm-5.926 0v-.02c0-2.023 1.596-3.68 3.791-3.68s3.771 1.637 3.771 3.659v.02c0 2.022-1.595 3.679-3.791 3.679S24.064 5.722 24.064 3.7h0z" fill="#0a0b09"/></g><g fill="#0a0b09"><path d="M56.622 64.255c.762 0 1.2-.407 1.2-1.006v-.02c0-.671-.468-1.016-1.23-1.016h-1.555v2.043h1.586zm-3.151-3.456h3.252c.904 0 1.606.255 2.073.722.396.397.61.956.61 1.626v.02c0 1.148-.62 1.87-1.525 2.206l1.738 2.54h-1.83l-1.525-2.276h-1.23v2.276h-1.565v-7.114h0zm7.376 0h5.366v1.393h-3.811v1.443h3.354v1.392h-3.354v1.494h3.862v1.392h-5.417v-7.114m11.425 1.414v4.289h1.209c1.28 0 2.145-.864 2.145-2.124v-.02c0-1.261-.864-2.145-2.145-2.145h-1.209zM70.706 60.8h2.775c2.236 0 3.781 1.535 3.781 3.537v.02c0 2.003-1.544 3.557-3.781 3.557h-2.775V60.8h0zm7.928-.001H84v1.393h-3.812v1.443h3.354v1.392h-3.354v1.494h3.863v1.392h-5.417v-7.114"/><use xlink:href="#C"/><use xlink:href="#C" x="6.166"/><path d="M96.459 63.432c.701-.071 1.047-.426.996-1.006h-.63V60.8h1.646v1.373c0 1.341-.67 1.88-1.88 1.9l-.132-.64m3.624 4.481h1.565V60.8h-1.565zm4.812-5.671h-2.164v-1.444h5.895v1.444h-2.165v5.671h-1.565v-5.671m8.066 2.694l-.946-2.307-.945 2.307h1.891zm-1.647-4.188h1.443l3.049 7.165h-1.637l-.65-1.595h-3.009l-.65 1.595h-1.595l3.049-7.165h0z"/><use xlink:href="#C" x="31.295"/><path d="M123.028 67.914h1.565V60.8h-1.565zm7.292-2.977l-.945-2.307-.946 2.307h1.891zm-1.646-4.188h1.443l3.049 7.165h-1.636l-.65-1.595h-3.009l-.651 1.595h-1.595l3.049-7.165h0z"/></g></g></svg>